<?xml version="1.0" encoding="UTF-8"?>
<!-- Generator: Adobe Illustrator 17.0.0, SVG Export Plug-In . SVG Version: 6.00 Build 0)  -->
<!DOCTYPE svg PUBLIC "-//W3C//DTD SVG 1.1//EN" "http://www.w3.org/Graphics/SVG/1.1/DTD/svg11.dtd">
<svg version="1.1" id="Layer_1" xmlns="http://www.w3.org/2000/svg" xmlns:xlink="http://www.w3.org/1999/xlink" x="0px" y="0px" width="50px" height="50px" viewBox="0 0 50 50" enable-background="new 0 0 50 50" xml:space="preserve">
<g>
	<path d="M42.282,34.762c0-0.531-0.43-0.962-0.962-0.962s-0.962,0.431-0.962,0.962v4.266l-5.605-5.605   c-0.376-0.376-0.984-0.376-1.36,0s-0.376,0.984,0,1.36l5.605,5.605h-4.266c-0.532,0-0.962,0.431-0.962,0.962   s0.43,0.962,0.962,0.962h6.587c0.125,0,0.25-0.026,0.367-0.074c0.235-0.097,0.423-0.285,0.52-0.52   c0.049-0.117,0.074-0.242,0.074-0.367V34.762z"/>
	<path d="M46.129,18.268H31.761V3.842c0-0.531-0.43-0.962-0.962-0.962H3.871c-0.532,0-0.962,0.431-0.962,0.962V30.77   c0,0.531,0.43,0.962,0.962,0.962h14.368v14.426c0,0.531,0.43,0.962,0.962,0.962h26.928c0.532,0,0.962-0.431,0.962-0.962V19.23   C47.091,18.699,46.661,18.268,46.129,18.268z M24.552,10.562c1.012,0,1.836,0.824,1.836,1.837s-0.824,1.837-1.836,1.837   c-1.013,0-1.837-0.824-1.837-1.837S23.539,10.562,24.552,10.562z M14.122,22.828H8.138c-0.084,0-0.161-0.045-0.202-0.117   c-0.041-0.073-0.04-0.162,0.002-0.233l6.205-10.524c0.083-0.142,0.317-0.142,0.4,0l3.615,6.133l2.424-2.507   c0.044-0.046,0.104-0.071,0.167-0.071c0.003,0,0.006,0,0.008,0c0.066,0.002,0.128,0.032,0.17,0.083l5.745,6.812   c0.061,0.042,0.102,0.113,0.102,0.193c0,0.128-0.104,0.232-0.233,0.232c-0.004,0-0.008,0-0.011,0h-5.972c-0.004,0-0.008,0-0.011,0   H14.122z M45.167,45.196H20.163V31.732h10.636c0.532,0,0.962-0.431,0.962-0.962V20.191h13.407V45.196z"/>
</g>
</svg>