<?xml version="1.0" encoding="UTF-8"?>
<!-- Generator: Adobe Illustrator 17.0.0, SVG Export Plug-In . SVG Version: 6.00 Build 0)  -->
<!DOCTYPE svg PUBLIC "-//W3C//DTD SVG 1.1//EN" "http://www.w3.org/Graphics/SVG/1.1/DTD/svg11.dtd">
<svg version="1.1" id="Layer_1" xmlns="http://www.w3.org/2000/svg" xmlns:xlink="http://www.w3.org/1999/xlink" x="0px" y="0px" width="50px" height="50px" viewBox="0 0 50 50" enable-background="new 0 0 50 50" xml:space="preserve">
<g>
	<g>
		<g>
			<path d="M42.792,43.754H15.864c-0.532,0-0.962-0.431-0.962-0.962s0.43-0.962,0.962-0.962H41.83V15.864     c0-0.531,0.43-0.962,0.962-0.962c0.532,0,0.962,0.431,0.962,0.962v26.928C43.754,43.323,43.323,43.754,42.792,43.754z"/>
		</g>
	</g>
	<path fill="#1D1D1B" d="M29.96,30.672h-2.316v-4.47c0-0.543,0.011-1.04,0.035-1.49c-0.143,0.173-0.32,0.354-0.532,0.543   l-0.959,0.791l-1.183-1.456l2.899-2.362h2.056V30.672z"/>
	<path d="M37.983,10.093h-2.885V7.208c0-0.531-0.43-0.962-0.962-0.962H7.208c-0.532,0-0.962,0.431-0.962,0.962v26.928   c0,0.531,0.43,0.962,0.962,0.962h2.885v2.885c0,0.531,0.43,0.962,0.962,0.962h26.928c0.532,0,0.962-0.431,0.962-0.962V11.055   C38.945,10.524,38.515,10.093,37.983,10.093z M33.175,33.175H8.17V8.17h25.005V33.175z"/>
</g>
</svg>