<?xml version="1.0" encoding="UTF-8"?>
<!-- Generator: Adobe Illustrator 17.0.0, SVG Export Plug-In . SVG Version: 6.00 Build 0)  -->
<!DOCTYPE svg PUBLIC "-//W3C//DTD SVG 1.1//EN" "http://www.w3.org/Graphics/SVG/1.1/DTD/svg11.dtd">
<svg version="1.1" id="Layer_1" xmlns="http://www.w3.org/2000/svg" xmlns:xlink="http://www.w3.org/1999/xlink" x="0px" y="0px" width="50px" height="50px" viewBox="0 0 50 50" enable-background="new 0 0 50 50" xml:space="preserve">
<g>
	<path d="M16.373,8.795c0-0.531-0.43-0.962-0.962-0.962S14.45,8.264,14.45,8.795v4.266L8.846,7.457c-0.376-0.376-0.984-0.376-1.36,0   s-0.376,0.984,0,1.36l5.604,5.605H8.824c-0.532,0-0.962,0.431-0.962,0.962c0,0.531,0.43,0.962,0.962,0.962h6.587   c0.125,0,0.25-0.026,0.367-0.074c0.235-0.097,0.423-0.285,0.52-0.52c0.049-0.117,0.074-0.242,0.074-0.367V8.795z"/>
	<path d="M46.129,18.268H31.761V3.842c0-0.531-0.43-0.962-0.962-0.962H3.871c-0.532,0-0.962,0.431-0.962,0.962V30.77   c0,0.531,0.43,0.962,0.962,0.962h14.368v14.426c0,0.531,0.43,0.962,0.962,0.962h26.928c0.532,0,0.962-0.431,0.962-0.962V19.23   C47.091,18.699,46.661,18.268,46.129,18.268z M39.882,25.95c1.012,0,1.836,0.824,1.836,1.837c0,1.013-0.824,1.837-1.836,1.837   c-1.012,0-1.836-0.824-1.836-1.837C38.046,26.773,38.869,25.95,39.882,25.95z M18.239,19.23v10.579H4.833V4.804h25.005v13.464   H19.201C18.669,18.268,18.239,18.699,18.239,19.23z M41.873,38.216c-0.004,0-0.008,0-0.011,0h-5.972h-0.011h-6.426h-5.984   c-0.084,0-0.161-0.045-0.202-0.117c-0.041-0.073-0.04-0.162,0.002-0.233l6.204-10.524c0.083-0.142,0.317-0.142,0.4,0l3.616,6.133   l2.425-2.508c0.046-0.047,0.129-0.064,0.175-0.071c0.066,0.002,0.128,0.032,0.17,0.083l5.745,6.812   c0.062,0.042,0.102,0.113,0.102,0.193C42.106,38.111,42.001,38.216,41.873,38.216z"/>
</g>
</svg>