<?xml version="1.0" encoding="UTF-8"?>
<!-- Generator: Adobe Illustrator 17.0.0, SVG Export Plug-In . SVG Version: 6.00 Build 0)  -->
<!DOCTYPE svg PUBLIC "-//W3C//DTD SVG 1.1//EN" "http://www.w3.org/Graphics/SVG/1.1/DTD/svg11.dtd">
<svg version="1.1" id="Layer_1" xmlns="http://www.w3.org/2000/svg" xmlns:xlink="http://www.w3.org/1999/xlink" x="0px" y="0px" width="50px" height="50px" viewBox="0 0 50 50" enable-background="new 0 0 50 50" xml:space="preserve">
<g>
	<path d="M16.373,8.795c0-0.531-0.43-0.962-0.962-0.962S14.45,8.264,14.45,8.795v4.266L8.846,7.456c-0.376-0.376-0.984-0.376-1.36,0   c-0.376,0.375-0.376,0.984,0,1.36l5.604,5.605H8.824c-0.532,0-0.962,0.431-0.962,0.962c0,0.531,0.43,0.962,0.962,0.962h6.587   c0.125,0,0.25-0.026,0.367-0.074c0.235-0.097,0.423-0.285,0.52-0.52c0.049-0.118,0.074-0.242,0.074-0.367v0V8.795z"/>
	<g>
		<path d="M33.252,28.527h-1.129v3.972h1.129c1.528,0,2.292-0.669,2.292-2.008C35.545,29.181,34.781,28.527,33.252,28.527z"/>
		<path d="M46.129,18.268H31.761V3.842c0-0.531-0.43-0.962-0.962-0.962H3.871c-0.532,0-0.962,0.431-0.962,0.962V30.77    c0,0.531,0.43,0.962,0.962,0.962h14.368v14.426c0,0.531,0.43,0.962,0.962,0.962h26.928c0.532,0,0.962-0.431,0.962-0.962V19.23    C47.091,18.699,46.661,18.268,46.129,18.268z M18.239,19.23v10.579H4.833V4.804h25.005v13.464H19.201    C18.669,18.268,18.239,18.699,18.239,19.23z M37.184,33.489c-0.922,0.791-2.151,1.186-3.692,1.186h-1.369v4.39h-2.87V26.322h4.496    c3.212,0,4.817,1.354,4.816,4.061C38.565,31.662,38.105,32.698,37.184,33.489z"/>
	</g>
</g>
</svg>