<?xml version="1.0" encoding="UTF-8"?>
<!-- Generator: Adobe Illustrator 17.0.0, SVG Export Plug-In . SVG Version: 6.00 Build 0)  -->
<!DOCTYPE svg PUBLIC "-//W3C//DTD SVG 1.1//EN" "http://www.w3.org/Graphics/SVG/1.1/DTD/svg11.dtd">
<svg version="1.1" id="Layer_1" xmlns="http://www.w3.org/2000/svg" xmlns:xlink="http://www.w3.org/1999/xlink" x="0px" y="0px" width="50px" height="50px" viewBox="0 0 50 50" enable-background="new 0 0 50 50" xml:space="preserve">
<g>
	<path d="M16.374,8.795c0-0.531-0.43-0.962-0.962-0.962c-0.532,0-0.962,0.431-0.962,0.962v4.266L8.845,7.456   c-0.376-0.376-0.984-0.376-1.36,0s-0.376,0.984,0,1.36l5.605,5.605H8.825c-0.532,0-0.962,0.431-0.962,0.962   c0,0.531,0.43,0.962,0.962,0.962h6.587c0.125,0,0.25-0.026,0.367-0.074c0.235-0.097,0.423-0.285,0.52-0.52   c0.049-0.117,0.074-0.242,0.074-0.367V8.795z"/>
	<path d="M46.129,18.268H31.761V3.842c0-0.531-0.43-0.962-0.962-0.962H3.871C3.34,2.88,2.91,3.311,2.91,3.842V30.77   c0,0.531,0.43,0.962,0.962,0.962h14.368v14.426c0,0.531,0.43,0.962,0.962,0.962h26.928c0.532,0,0.962-0.431,0.962-0.962V19.23   C47.09,18.699,46.66,18.268,46.129,18.268z M18.239,19.23v10.579H4.833V4.804h25.005v13.464H19.201   C18.669,18.268,18.239,18.699,18.239,19.23z M37.015,39.475H34.55l-1.639-8.163c-0.086-0.426-0.139-0.903-0.158-1.429h-0.027   c-0.042,0.58-0.101,1.056-0.179,1.429l-1.681,8.163H28.3L25.705,26.75h2.43l1.391,8.474c0.06,0.361,0.103,0.846,0.13,1.455h0.042   c0.018-0.456,0.085-0.952,0.2-1.491l1.79-8.438h2.381l1.618,8.546c0.059,0.313,0.112,0.769,0.159,1.367h0.027   c0.018-0.467,0.067-0.941,0.146-1.42l1.362-8.492h2.244L37.015,39.475z"/>
</g>
</svg>