<?xml version="1.0" encoding="UTF-8"?>
<!-- Generator: Adobe Illustrator 17.0.0, SVG Export Plug-In . SVG Version: 6.00 Build 0)  -->
<!DOCTYPE svg PUBLIC "-//W3C//DTD SVG 1.1//EN" "http://www.w3.org/Graphics/SVG/1.1/DTD/svg11.dtd">
<svg version="1.1" id="Layer_1" xmlns="http://www.w3.org/2000/svg" xmlns:xlink="http://www.w3.org/1999/xlink" x="0px" y="0px" width="50px" height="50px" viewBox="0 0 50 50" enable-background="new 0 0 50 50" xml:space="preserve">
<g>
	<path d="M16.373,8.795c0-0.531-0.43-0.962-0.962-0.962c-0.532,0-0.962,0.431-0.962,0.962v4.266L8.846,7.456   c-0.376-0.376-0.984-0.376-1.36,0c-0.376,0.375-0.376,0.984,0,1.36l5.604,5.605H8.824c-0.532,0-0.962,0.431-0.962,0.962   c0,0.531,0.43,0.962,0.962,0.962h6.587c0.125,0,0.25-0.026,0.367-0.074c0.235-0.097,0.423-0.285,0.52-0.52   c0.049-0.118,0.074-0.242,0.074-0.367v0V8.795z"/>
	<path d="M46.129,18.268H31.761V3.842c0-0.531-0.43-0.962-0.962-0.962H3.871c-0.532,0-0.962,0.431-0.962,0.962V30.77   c0,0.531,0.43,0.962,0.962,0.962h14.368v14.426c0,0.531,0.43,0.962,0.962,0.962h26.928c0.532,0,0.962-0.431,0.962-0.962V19.23   C47.091,18.699,46.661,18.268,46.129,18.268z M18.239,19.23v10.579H4.833V4.804h25.005v13.464H19.201   C18.669,18.268,18.239,18.699,18.239,19.23z M35.165,39.06L35.165,39.06l-2.193-4.146c-0.083-0.154-0.169-0.439-0.258-0.853h-0.035   c-0.041,0.195-0.139,0.492-0.293,0.888l-2.202,4.111h-3.419l4.058-6.367l-3.712-6.368h3.49l1.82,3.819   c0.142,0.302,0.27,0.66,0.382,1.075h0.034c0.071-0.249,0.204-0.619,0.4-1.11l2.025-3.783h3.197L34.64,32.64l3.926,6.42H35.165z"/>
</g>
</svg>