<?xml version="1.0" encoding="UTF-8"?>
<!-- Generator: Adobe Illustrator 17.0.0, SVG Export Plug-In . SVG Version: 6.00 Build 0)  -->
<!DOCTYPE svg PUBLIC "-//W3C//DTD SVG 1.1//EN" "http://www.w3.org/Graphics/SVG/1.1/DTD/svg11.dtd">
<svg version="1.1" id="Layer_1" xmlns="http://www.w3.org/2000/svg" xmlns:xlink="http://www.w3.org/1999/xlink" x="0px" y="0px" width="50px" height="50px" viewBox="0 0 50 50" enable-background="new 0 0 50 50" xml:space="preserve">
<g>
	<path d="M42.282,34.761c0-0.531-0.43-0.962-0.962-0.962s-0.962,0.431-0.962,0.962v4.266l-5.605-5.605   c-0.376-0.376-0.984-0.376-1.36,0s-0.376,0.984,0,1.36l5.605,5.605h-4.266c-0.532,0-0.962,0.431-0.962,0.962   s0.43,0.962,0.962,0.962h6.587c0.125,0,0.25-0.026,0.367-0.074c0.235-0.097,0.423-0.285,0.52-0.52   c0.049-0.117,0.074-0.242,0.074-0.367V34.761z"/>
	<g>
		<path d="M17.923,13.139h-1.129v3.972h1.129c1.528,0,2.292-0.669,2.292-2.008C20.215,13.794,19.451,13.139,17.923,13.139z"/>
		<path d="M46.129,18.268H31.761V3.842c0-0.531-0.43-0.962-0.962-0.962H3.871c-0.532,0-0.962,0.431-0.962,0.962V30.77    c0,0.531,0.43,0.962,0.962,0.962h14.368v14.426c0,0.531,0.43,0.962,0.962,0.962h26.928c0.532,0,0.962-0.431,0.962-0.962V19.23    C47.091,18.699,46.661,18.268,46.129,18.268z M18.162,19.288h-1.369v4.39h-2.87V10.935h4.496c3.212,0,4.817,1.354,4.816,4.061    c0,1.279-0.46,2.315-1.382,3.105C20.933,18.892,19.703,19.288,18.162,19.288z M45.167,45.196H20.163V31.732h10.636    c0.532,0,0.962-0.431,0.962-0.962V20.191h13.407V45.196z"/>
	</g>
</g>
</svg>