<?xml version="1.0" encoding="UTF-8"?>
<!-- Generator: Adobe Illustrator 17.0.0, SVG Export Plug-In . SVG Version: 6.00 Build 0)  -->
<!DOCTYPE svg PUBLIC "-//W3C//DTD SVG 1.1//EN" "http://www.w3.org/Graphics/SVG/1.1/DTD/svg11.dtd">
<svg version="1.1" id="Layer_1" xmlns="http://www.w3.org/2000/svg" xmlns:xlink="http://www.w3.org/1999/xlink" x="0px" y="0px" width="50px" height="50px" viewBox="0 0 50 50" enable-background="new 0 0 50 50" xml:space="preserve">
<g>
	<path d="M22.315,44.06c-7.977-1.309-13.766-8.136-13.766-16.233c0-8.915,7.133-16.18,15.99-16.427l-4.027,4.027   c-0.376,0.376-0.376,0.984,0,1.36c0.188,0.188,0.434,0.282,0.68,0.282s0.492-0.094,0.68-0.282l5.597-5.597   c0.376-0.376,0.376-0.984,0-1.36l-5.597-5.597c-0.376-0.376-0.984-0.376-1.36,0s-0.376,0.984,0,1.36l3.89,3.89   c-9.854,0.32-17.777,8.414-17.777,18.344c0,9.044,6.467,16.669,15.378,18.131c0.053,0.008,0.105,0.013,0.157,0.013   c0.463,0,0.871-0.335,0.948-0.806C23.194,44.641,22.839,44.146,22.315,44.06z"/>
	<path d="M40.474,35.877c-0.456-0.271-1.046-0.121-1.319,0.336c-2.592,4.367-6.953,7.254-11.963,7.921   c-0.527,0.07-0.897,0.554-0.826,1.08c0.064,0.484,0.477,0.835,0.952,0.835c0.042,0,0.085-0.003,0.128-0.008   c5.598-0.745,10.469-3.969,13.365-8.846C41.081,36.738,40.931,36.148,40.474,35.877z"/>
	<path d="M42.413,26.865c-0.532,0-0.962,0.431-0.962,0.962c0,1.645-0.241,3.268-0.718,4.824c-0.156,0.508,0.13,1.046,0.638,1.201   c0.094,0.029,0.189,0.043,0.282,0.043c0.411,0,0.793-0.266,0.919-0.68c0.533-1.738,0.803-3.551,0.803-5.387   C43.375,27.296,42.944,26.865,42.413,26.865z"/>
</g>
</svg>