<?xml version="1.0" encoding="UTF-8"?>
<!-- Generator: Adobe Illustrator 17.0.0, SVG Export Plug-In . SVG Version: 6.00 Build 0)  -->
<!DOCTYPE svg PUBLIC "-//W3C//DTD SVG 1.1//EN" "http://www.w3.org/Graphics/SVG/1.1/DTD/svg11.dtd">
<svg version="1.1" id="Layer_1" xmlns="http://www.w3.org/2000/svg" xmlns:xlink="http://www.w3.org/1999/xlink" x="0px" y="0px" width="50px" height="50px" viewBox="0 0 50 50" enable-background="new 0 0 50 50" xml:space="preserve">
<g>
	<g>
		<g>
			<path d="M40.388,41.349H30.77c-0.532,0-0.962-0.431-0.962-0.962c0-0.531,0.43-0.962,0.962-0.962h8.655V30.77     c0-0.531,0.43-0.962,0.962-0.962c0.532,0,0.962,0.431,0.962,0.962v9.617C41.349,40.919,40.919,41.349,40.388,41.349z"/>
		</g>
		<g>
			<path d="M40.388,41.349c-0.246,0-0.492-0.094-0.68-0.282L29.129,30.489c-0.376-0.376-0.376-0.984,0-1.36s0.984-0.376,1.36,0     l10.579,10.579c0.376,0.376,0.376,0.984,0,1.36C40.88,41.255,40.634,41.349,40.388,41.349z"/>
		</g>
	</g>
	<g>
		<g>
			<path d="M46.158,47.12H19.23c-0.532,0-0.962-0.431-0.962-0.962V31.732H3.842c-0.532,0-0.962-0.431-0.962-0.962V3.842     c0-0.531,0.43-0.962,0.962-0.962H30.77c0.532,0,0.962,0.431,0.962,0.962v14.426h14.426c0.532,0,0.962,0.431,0.962,0.962v26.928     C47.12,46.689,46.689,47.12,46.158,47.12z M20.191,45.196h25.005V20.191H30.77c-0.532,0-0.962-0.431-0.962-0.962V4.804H4.804     v25.005H19.23c0.532,0,0.962,0.431,0.962,0.962V45.196z"/>
		</g>
	</g>
	<g>
		<path d="M20.191,21.153c-0.246,0-0.492-0.094-0.68-0.282l-8.937-8.937v7.296c0,0.531-0.43,0.962-0.962,0.962    c-0.532,0-0.962-0.431-0.962-0.962V9.612c0-0.001,0-0.002,0-0.003l0,0c0-0.129,0.026-0.252,0.072-0.363    C8.77,9.132,8.84,9.025,8.933,8.933C9.026,8.84,9.132,8.77,9.246,8.723C9.358,8.677,9.481,8.651,9.61,8.651l0,0    c0.001,0,0.002,0,0.003,0h9.617c0.532,0,0.962,0.431,0.962,0.962c0,0.531-0.43,0.962-0.962,0.962h-7.296l8.937,8.937    c0.376,0.376,0.376,0.984,0,1.36C20.684,21.059,20.437,21.153,20.191,21.153z"/>
	</g>
	<g>
		<circle cx="22.115" cy="27.886" r="0.78"/>
	</g>
	<g>
		<circle cx="25" cy="25" r="0.78"/>
	</g>
	<g>
		<circle cx="27.885" cy="22.114" r="0.78"/>
	</g>
</g>
</svg>