<svg version="1.1" id="Layer_1" xmlns="http://www.w3.org/2000/svg" xmlns:xlink="http://www.w3.org/1999/xlink" x="0px" y="0px" width="785.197px" height="785.197px" viewBox="202.543 28.347 785.197 785.197" enable-background="new 202.543 28.347 785.197 785.197" xml:space="preserve">
<g>
	<g>
		<circle fill="#00ACED" cx="595.141" cy="420.945" r="391.862"/>
		<path fill="#FFFFFF" d="M422.018,277.365c0,0,62.147,70.26,165.01,81.74c0,0-4.898-58.779,47.299-91.536    c0,0,53.881-35.972,94.751,16.379c0,0,39.186-8.113,53.881-17.909c0,0-11.48,22.195-31.073,41.329l44.084-8.725l-40.87,44.084    c0,0,16.379,148.632-146.183,227.004c0,0-126.59,45.768-214.759-14.695c0,0,107.762-16.379,119.242-40.87    c0,0-57.248-6.582-71.943-55.565l31.073-1.684c0,0-53.881-4.898-60.463-81.74l35.972,4.898    C448.193,380.228,390.944,364.003,422.018,277.365z"/>
	</g>
</g>
</svg>