<?xml version="1.0" encoding="UTF-8"?>
<!-- Generator: Adobe Illustrator 17.0.0, SVG Export Plug-In . SVG Version: 6.00 Build 0)  -->
<!DOCTYPE svg PUBLIC "-//W3C//DTD SVG 1.1//EN" "http://www.w3.org/Graphics/SVG/1.1/DTD/svg11.dtd">
<svg version="1.1" id="Layer_1" xmlns="http://www.w3.org/2000/svg" xmlns:xlink="http://www.w3.org/1999/xlink" x="0px" y="0px" width="50px" height="50px" viewBox="0 0 50 50" enable-background="new 0 0 50 50" xml:space="preserve">
<path d="M40.013,22.029H17.902c-0.012-5.151,0.005-7.342,0.024-7.651c0.131-1.626,1.003-3.268,2.331-4.393  c1.383-1.168,2.981-1.726,4.846-1.708c0.217,0.002,0.44,0.012,0.663,0.031c3.341,0.269,6.119,2.978,6.324,6.168  c0.021,0.314,0.01,0.583-0.004,1.192c-0.009,0.439-0.023,1.031-0.036,1.884c-0.015,1.062,0.834,1.936,1.896,1.951  c1.08-0.009,1.936-0.834,1.951-1.896c0.011-0.838,0.025-1.419,0.035-1.85c0.017-0.723,0.025-1.087-0.003-1.529  c-0.326-5.051-4.655-9.336-9.855-9.755c-0.313-0.025-0.625-0.039-0.932-0.043c-0.044,0-0.088,0-0.133,0  c-2.747,0-5.181,0.88-7.237,2.618c-2.093,1.772-3.47,4.397-3.681,7.018c-0.014,0.164-0.054,0.674-0.037,7.963H9.987  c-0.561,0-1.015,0.455-1.015,1.015v21.51c0,0.561,0.455,1.015,1.015,1.015h30.026c0.561,0,1.015-0.455,1.015-1.015v-21.51  C41.028,22.484,40.574,22.029,40.013,22.029z M27.488,39.443h-4.977l0.76-6.169c-0.733-0.515-1.209-1.347-1.209-2.288  c0-1.563,1.315-2.83,2.938-2.83c1.622,0,2.938,1.267,2.938,2.83c0,0.94-0.476,1.773-1.209,2.288L27.488,39.443z"/>
</svg>