<?xml version="1.0" encoding="UTF-8"?>
<!-- Generator: Adobe Illustrator 17.0.0, SVG Export Plug-In . SVG Version: 6.00 Build 0)  -->
<!DOCTYPE svg PUBLIC "-//W3C//DTD SVG 1.1//EN" "http://www.w3.org/Graphics/SVG/1.1/DTD/svg11.dtd">
<svg version="1.1" id="Layer_1" xmlns="http://www.w3.org/2000/svg" xmlns:xlink="http://www.w3.org/1999/xlink" x="0px" y="0px" width="50px" height="50px" viewBox="0 0 50 50" enable-background="new 0 0 50 50" xml:space="preserve">
<g>
	<path d="M21.696,22.196c0,1.22-1.575,4.287-3.037,6.621c-0.136,0.218-0.183,0.496-0.113,0.744c0.111,0.393,0.47,0.666,0.879,0.666   h11.152c0.345,0,0.661-0.195,0.815-0.504c0.155-0.308,0.124-0.678-0.082-0.955c-2.079-2.797-3.006-4.824-3.006-6.573   c0-1.748,0.927-3.775,3.014-6.586c0.954-1.329,1.459-2.896,1.459-4.533C32.777,6.789,29.289,3.3,25,3.3s-7.777,3.488-7.777,7.776   c0,1.636,0.504,3.204,1.468,4.546C20.769,18.42,21.696,20.447,21.696,22.196z"/>
	<path d="M41.88,31.501H8.12c-0.504,0-0.913,0.409-0.913,0.913v9.177c0,0.504,0.408,0.913,0.913,0.913h33.76   c0.504,0,0.913-0.409,0.913-0.913v-9.177C42.793,31.91,42.384,31.501,41.88,31.501z"/>
	<path d="M36.716,43.84h-23.43c-0.504,0-0.913,0.409-0.913,0.913v1.035c0,0.504,0.408,0.913,0.913,0.913h23.43   c0.504,0,0.913-0.409,0.913-0.913v-1.035C37.628,44.249,37.22,43.84,36.716,43.84z"/>
</g>
</svg>