<?xml version="1.0" encoding="UTF-8"?>
<!-- Generator: Adobe Illustrator 17.0.0, SVG Export Plug-In . SVG Version: 6.00 Build 0)  -->
<!DOCTYPE svg PUBLIC "-//W3C//DTD SVG 1.1//EN" "http://www.w3.org/Graphics/SVG/1.1/DTD/svg11.dtd">
<svg version="1.1" id="Layer_1" xmlns="http://www.w3.org/2000/svg" xmlns:xlink="http://www.w3.org/1999/xlink" x="0px" y="0px" width="50px" height="50px" viewBox="0 0 50 50" enable-background="new 0 0 50 50" xml:space="preserve">
<g>
	<path d="M42.282,34.761c0-0.531-0.43-0.962-0.962-0.962s-0.962,0.431-0.962,0.962v4.266l-5.604-5.604   c-0.376-0.376-0.984-0.376-1.36,0s-0.376,0.984,0,1.36l5.604,5.605h-4.266c-0.532,0-0.962,0.431-0.962,0.962   s0.43,0.962,0.962,0.962h6.587c0.125,0,0.25-0.026,0.367-0.074c0.235-0.097,0.423-0.285,0.52-0.52   c0.049-0.117,0.074-0.242,0.074-0.367V34.761z"/>
	<path d="M46.129,18.268H31.761V3.842c0-0.531-0.43-0.962-0.962-0.962H3.871C3.34,2.88,2.91,3.311,2.91,3.842V30.77   c0,0.531,0.43,0.962,0.962,0.962h14.368v14.426c0,0.531,0.43,0.962,0.962,0.962h26.928c0.532,0,0.962-0.431,0.962-0.962V19.23   C47.09,18.699,46.66,18.268,46.129,18.268z M17.582,15.924c-0.086-0.426-0.139-0.903-0.158-1.429h-0.027   c-0.042,0.58-0.102,1.056-0.179,1.429l-1.681,8.163H12.97l-2.595-12.725h2.43l1.391,8.474c0.06,0.361,0.103,0.846,0.13,1.455h0.042   c0.018-0.456,0.085-0.952,0.2-1.491l1.79-8.439h2.382l1.618,8.546c0.059,0.313,0.112,0.769,0.159,1.367h0.027   c0.018-0.467,0.067-0.941,0.146-1.42l1.362-8.492h2.245l-2.61,12.725h-2.465L17.582,15.924z M45.167,45.196H20.162V31.732h10.637   c0.532,0,0.962-0.431,0.962-0.962V20.191h13.406V45.196z"/>
</g>
</svg>